<?xml version="1.0" ?><!-- Uploaded to: SVG Repo, www.svgrepo.com, Generator: SVG Repo Mixer Tools -->
<svg fill="#000000" width="800px" height="800px" viewBox="0 0 64 64" data-name="Layer 1" id="Layer_1" xmlns="http://www.w3.org/2000/svg"><title/><circle cx="48" cy="29" r="3"/><path d="M20.35059,18.0022A4.22518,4.22518,0,0,0,23,14.28571,3.70688,3.70688,0,0,0,22.18353,12,3.707,3.707,0,0,0,23,9.71429a4.07646,4.07646,0,0,0-2.10559-3.423l.0003-.00561C20.89471,3.91876,18.53833,2,15.63159,2A6.17,6.17,0,0,0,13,2.578,6.17,6.17,0,0,0,10.36841,2C7.46167,2,5.10529,3.91876,5.10529,6.28571l.0003.00561A4.07646,4.07646,0,0,0,3,9.71429,3.707,3.707,0,0,0,3.81647,12,3.70688,3.70688,0,0,0,3,14.28571a3.9354,3.9354,0,0,0,1.60089,3.0744,3.52592,3.52592,0,0,0-.022.35418C4.57892,20.08124,6.93536,22,9.8421,22a11.74878,11.74878,0,0,0,3.65131-.57806A6.17014,6.17014,0,0,0,16.125,22C18.91235,22,20.16791,20.23431,20.35059,18.0022ZM19,13H14v5H12V13H7V11h5V6h2v5h5Z"/><path d="M58.78912,6.29132l.00037-.00561C58.78949,3.91876,56.31525,2,53.26318,2A6.75077,6.75077,0,0,0,50.5,2.578,6.75077,6.75077,0,0,0,47.73682,2c-3.05207,0-5.52631,1.91876-5.52631,4.28571l.00037.00561A4.05628,4.05628,0,0,0,40,9.71429,3.59978,3.59978,0,0,0,40.8573,12,3.59966,3.59966,0,0,0,40,14.28571a3.88129,3.88129,0,0,0,1.681,3.0744,3.35461,3.35461,0,0,0-.02307.35418c0,2.367,2.47424,4.28571,5.5263,4.28571a12.90082,12.90082,0,0,0,3.83387-.57806A6.75112,6.75112,0,0,0,53.78125,22a4.05129,4.05129,0,0,0,4.43683-3.9978A4.24033,4.24033,0,0,0,61,14.28571,3.59966,3.59966,0,0,0,60.1427,12,3.59978,3.59978,0,0,0,61,9.71429,4.05628,4.05628,0,0,0,58.78912,6.29132ZM57,13H45V11H57Z"/><path d="M32,38C15.98376,38,3,48.74518,3,62H61C61,48.74518,48.01624,38,32,38ZM21,58c-3.30859,0-6-2.24316-6-5h2c0,1.6543,1.79395,3,4,3s4-1.3457,4-3h2C27,55.75684,24.30859,58,21,58Zm22,0c-3.30859,0-6-2.24316-6-5h2c0,1.6543,1.794,3,4,3s4-1.3457,4-3h2C49,55.75684,46.30859,58,43,58Z"/><circle cx="16" cy="29" r="3"/><circle cx="39" cy="30" r="2"/><circle cx="25" cy="30" r="2"/></svg>