<!DOCTYPE svg PUBLIC "-//W3C//DTD SVG 1.1//EN" "http://www.w3.org/Graphics/SVG/1.1/DTD/svg11.dtd">
<!-- Uploaded to: SVG Repo, www.svgrepo.com, Transformed by: SVG Repo Mixer Tools -->
<svg width="800px" height="800px" viewBox="0 -0.5 17 17" version="1.1" xmlns="http://www.w3.org/2000/svg" xmlns:xlink="http://www.w3.org/1999/xlink" class="si-glyph si-glyph-book-4" fill="#000000">
<g id="SVGRepo_bgCarrier" stroke-width="0"/>
<g id="SVGRepo_tracerCarrier" stroke-linecap="round" stroke-linejoin="round"/>
<g id="SVGRepo_iconCarrier"> <title>1092</title> <defs> </defs> <g stroke="none" stroke-width="1" fill="none" fill-rule="evenodd"> <path d="M15,0 L15,16 L3.016,16 L3.016,14 L4,14 L4,12 L3.016,12 L3.016,4 L4,4 L4,2 L3.016,2 L3.016,0 L15,0 L15,0 Z M2,2 L2,4 L3,4 L3,2 L2,2 L2,2 Z M2,12 L2,14 L3,14 L3,12 L2,12 L2,12 Z M17,10.07 L16,10.07 L16,12.913 L17,12.913 L17,10.07 L17,10.07 Z M17,6.018 L16,6.018 L16,9 L17,9 L17,6.018 L17,6.018 Z M17,2.101 L16,2.101 L16,4.96 L17,4.96 L17,2.101 L17,2.101 Z" fill="#2C2C2C" class="si-glyph-fill"> </path> </g> </g>
</svg>