<?xml version="1.0" ?><!-- Uploaded to: SVG Repo, www.svgrepo.com, Generator: SVG Repo Mixer Tools -->
<svg fill="#2C2C2C" width="800px" height="800px" viewBox="0 0 64 64" data-name="Layer 1" id="Layer_1" xmlns="http://www.w3.org/2000/svg">
<title/>
<path d="M61,3l-.32263-.04767A57.133,57.133,0,0,0,34.72931,5.11768L32,6,29.27069,4.77893A57.13382,57.13382,0,0,0,3.32263,2.61359L3,2.66125v35l6.37286-1.52136a26.38973,26.38973,0,0,1,11.03473-.26349,14.88685,14.88685,0,0,1,2.63037.79132L32,40.5l9.049-3.5274a14.14576,14.14576,0,0,1,2.45191-.74,26.38925,26.38925,0,0,1,11.12622.246L61,38ZM28.59766,31.29a10.59608,10.59608,0,0,0-2.08789-.68115A52.9849,52.9849,0,0,0,6.17871,30.3584l-.35742-1.96778a54.95071,54.95071,0,0,1,21.0957.26026,12.60642,12.60642,0,0,1,2.48535.8081Zm0-6a10.59608,10.59608,0,0,0-2.08789-.68115A52.9847,52.9847,0,0,0,6.17871,24.3584l-.35742-1.96778a54.941,54.941,0,0,1,21.0957.26026,12.60642,12.60642,0,0,1,2.48535.8081Zm0-6a10.59608,10.59608,0,0,0-2.08789-.68115A52.9849,52.9849,0,0,0,6.17871,18.3584l-.35742-1.96778a54.941,54.941,0,0,1,21.0957.26026,12.60642,12.60642,0,0,1,2.48535.8081Zm0-6a10.59608,10.59608,0,0,0-2.08789-.68115A52.9849,52.9849,0,0,0,6.17871,12.3584l-.35742-1.96778a54.941,54.941,0,0,1,21.0957.26026,12.60642,12.60642,0,0,1,2.48535.8081ZM33,37.5H31V7.5h2Zm24.82129-7.1416a52.97949,52.97949,0,0,0-20.332.25049,10.60869,10.60869,0,0,0-2.08692.68115L34.59766,29.459a12.619,12.619,0,0,1,2.48437-.8081,54.9752,54.9752,0,0,1,21.09668-.26026Zm0-6a52.98919,52.98919,0,0,0-20.332.25049,10.60869,10.60869,0,0,0-2.08692.68115L34.59766,23.459a12.619,12.619,0,0,1,2.48437-.8081,54.9754,54.9754,0,0,1,21.09668-.26026Zm0-6a52.97949,52.97949,0,0,0-20.332.25049,10.60869,10.60869,0,0,0-2.08692.68115L34.59766,17.459a12.619,12.619,0,0,1,2.48437-.8081,54.94631,54.94631,0,0,1,21.09668-.26026Zm0-6a52.98919,52.98919,0,0,0-20.332.25049,10.60869,10.60869,0,0,0-2.08692.68115L34.59766,11.459a12.619,12.619,0,0,1,2.48437-.8081,54.9657,54.9657,0,0,1,21.09668-.26026Z"/>
<path d="M22.64453,38.22467C22.41522,38.13525,22.21423,38.07458,22,38v5.13727H14.81348A9.81344,9.81344,0,0,0,5,52.95074v9.18653H59V52.95074a9.81344,9.81344,0,0,0-9.81348-9.81347H42V38.33594c-.1958.06872-.37653.12323-.58789.20562L40,39.092v4.04523a8.07143,8.07143,0,0,1-16,0v-4.333Z"/>
</svg>